<svg fill="none" height="40" viewBox="0 0 36 40" width="36" xmlns="http://www.w3.org/2000/svg"><path d="m19.3182 17.5-.6364 3.6364h3.8182l-3.8182 6.3636.6364-3.6364h-3.8182z" stroke="#fff"/><path d="m10.9527 16.5c-1.22502 1.6241-1.9527 3.655-1.9527 5.8571 0 5.3182 4.2459 9.6429 9.5 9.6429s9.5-4.3247 9.5-9.6429c0-2.2021-.7277-4.233-1.9527-5.8571h-1.2968c1.3963 1.5396 2.2495 3.5962 2.2495 5.8571 0 4.7808-3.813 8.6429-8.5 8.6429s-8.5-3.8621-8.5-8.6429c0-2.2609.8532-4.3175 2.2495-5.8571z" fill="#fff"/><g fill="#ff8a00"><path d="m4.5 9.5c-1.10457 0-2 .8954-2 2v9c0 1.1046.89543 2 2 2h2.50414c-.00275-.1064-.00414-.2132-.00414-.3203 0-1.2332.18386-2.4227.525-3.5408h-.70701v-4.97h9.13961c.8069-.2344 1.66-.3601 2.5425-.3601s1.7356.1257 2.5424.3601h9.2802v4.97h-.8477c.3411 1.1181.525 2.3076.525 3.5408 0 .1071-.0014.2139-.0041.3203h2.5041c1.1046 0 2-.8954 2-2v-9c0-1.1046-.8954-2-2-2z" opacity=".3"/><path d="m2 11.5c0-1.3807 1.11929-2.5 2.5-2.5h28c1.3807 0 2.5 1.1193 2.5 2.5v9c0 1.3807-1.1193 2.5-2.5 2.5h-2.5273c.0181-.271.0273-.5446.0273-.8203 0-.06-.0004-.1199-.0013-.1797h2.5013c.8284 0 1.5-.6716 1.5-1.5v-9c0-.8284-.6716-1.5-1.5-1.5h-28c-.82843 0-1.5.6716-1.5 1.5v9c0 .8284.67157 1.5 1.5 1.5h2.5013c-.00086.0598-.0013.1197-.0013.1797 0 .2757.00919.5493.02728.8203h-2.52728c-1.38071 0-2.5-1.1193-2.5-2.5z"/><path d="m7.78186 17.8874c-.13729.3619-.25772.7324-.36032 1.1106-.79196-.0408-1.42154-.6959-1.42154-1.498v-3c0-.8284.67157-1.5 1.5-1.5h22c.8284 0 1.5.6716 1.5 1.5v3c0 .8021-.6296 1.4572-1.4215 1.498-.1026-.3782-.2231-.7487-.3604-1.1106.3902-.0917.7819-.2312.7819-.3874v-3c0-.2761-.2239-.5-.5-.5h-22c-.27614 0-.5.2239-.5.5v3c0 .1562.39167.2957.78186.3874z"/></g></svg>