<svg fill="none" height="40" viewBox="0 0 36 40" width="36" xmlns="http://www.w3.org/2000/svg"><g fill="#162e77"><path d="m26 31.5c0-1.933 1.567-3.5 3.5-3.5s3.5 1.567 3.5 3.5-1.567 3.5-3.5 3.5-3.5-1.567-3.5-3.5z"/><path d="m3 8.5c0-1.933 1.567-3.5 3.5-3.5s3.5 1.567 3.5 3.5-1.567 3.5-3.5 3.5-3.5-1.567-3.5-3.5z"/><path d="m26 8.5c0 1.933 1.567 3.5 3.5 3.5s3.5-1.567 3.5-3.5-1.567-3.5-3.5-3.5-3.5 1.567-3.5 3.5z"/><path d="m3 31.5c0 1.933 1.567 3.5 3.5 3.5s3.5-1.567 3.5-3.5-1.567-3.5-3.5-3.5-3.5 1.567-3.5 3.5z"/></g><path d="m26 31.5c0-1.933 1.567-3.5 3.5-3.5s3.5 1.567 3.5 3.5-1.567 3.5-3.5 3.5-3.5-1.567-3.5-3.5z" stroke="#2d68ff"/><path d="m3 8.5c0-1.933 1.567-3.5 3.5-3.5s3.5 1.567 3.5 3.5-1.567 3.5-3.5 3.5-3.5-1.567-3.5-3.5z" stroke="#2d68ff"/><path d="m26 8.5c0 1.933 1.567 3.5 3.5 3.5s3.5-1.567 3.5-3.5-1.567-3.5-3.5-3.5-3.5 1.567-3.5 3.5z" stroke="#2d68ff"/><path d="m3 31.5c0 1.933 1.567 3.5 3.5 3.5s3.5-1.567 3.5-3.5-1.567-3.5-3.5-3.5-3.5 1.567-3.5 3.5z" stroke="#2d68ff"/><path d="m21.6444 23.7191 3.3556 3.3557m-9.6236-9.8141c-.8486.8184-1.3764 1.9672-1.3764 3.2393 0 2.4853 2.0251 4.4999 4.5104 4.4999s4.5104-2.0147 4.5104-4.5c0-1.2721-.5276-2.4004-1.3762-3.2189m-6.2682-.0203c.8093-.7806 1.9208-1.2608 3.134-1.2608s2.3249.5006 3.1342 1.2811m-6.2682-.0203-3.3555-3.3556m3.3522 9.831-3.3523 3.3386m9.6238-9.7937 3.3553-3.376" stroke="#fff"/></svg>