<svg fill="none" height="40" viewBox="0 0 36 40" width="36" xmlns="http://www.w3.org/2000/svg"><path d="m31.7405 25.2809c1.7643 1.7643 1.7643 4.6249 0 6.3892s-4.6249 1.7643-6.3892 0-1.7643-4.6249 0-6.3892c.5884-.5884 1.7404-1.7403 2.4883-2.4881.3905-.3905 1.0224-.3904 1.4129.0002.7616.7616 1.9384 1.9384 2.488 2.4879z" stroke="#fff"/><circle cx="18.0281" cy="17.5" r="6" stroke="#00d2ff"/><g fill="#00d2ff"><circle cx="18.0281" cy="17.5" opacity=".3" r="6"/><path d="m3.29531 16.6989c1.07249-1.2881 3.07218-3.4733 5.65808-5.3327 2.59061-1.86283 5.72411-3.3662 9.07471-3.3662 3.3507 0 6.4842 1.50337 9.0748 3.3662 2.5859 1.8594 4.5856 4.0446 5.658 5.3327.3938.4729.3938 1.1293 0 1.6022-.5859.7037-1.4485 1.6752-2.5323 2.7149.1545.105.3013.2259.4382.3627l.3075.3076c1.0937-1.0539 1.963-2.0341 2.5551-2.7453.7025-.8437.7025-2.0383 0-2.882-1.1016-1.3231-3.1626-3.5775-5.8427-5.5047-2.6755-1.92384-6.0134-3.5543-9.6586-3.5543-3.6451 0-6.9831 1.63046-9.65852 3.5543-2.68014 1.9272-4.7411 4.1816-5.84277 5.5047-.70242.8437-.70241 2.0383 0 2.882 1.10167 1.3231 3.16263 3.5775 5.84277 5.5047 2.67542 1.9238 6.01342 3.5543 9.65852 3.5543 1.4202 0 2.7938-.2475 4.0997-.6634.07-.396.1766-.7868.3201-1.1668-1.4074.5172-2.891.8302-4.4198.8302-3.3506 0-6.4841-1.5034-9.07471-3.3662-2.5859-1.8594-4.58559-4.0446-5.65808-5.3327-.39375-.4729-.39375-1.1293 0-1.6022z"/></g></svg>