<svg fill="none" height="35" viewBox="0 0 45 35" width="45" xmlns="http://www.w3.org/2000/svg"><path clip-rule="evenodd" d="m7 25.2673c.04573.615.51515.9257.99657 1.2442l.00797.0054.00592.0039.00399.0027c.05046.0334.10105.0668.15124.1009 2.04641 1.322 4.23591 2.3627 6.56851 3.1362.372.1266.5724.0703.787-.2531.4293-.647.8443-1.2939 1.2307-1.969.1861-.3094.1145-.4501-.2146-.5766-.2578-.1036-2.3093-.9121-2.1609-1.1673.1145-.197.3291-.436.644-.3657.1145.0281.229.0984.3434.1407 5.1088 2.0955 10.2176 2.1096 15.3121-.0282.1997-.09.3744-.1913.5868-.0562.4436.3094.4579.4078-.0286.6469-.6011.2954-1.2164.5767-1.8318.8439-.3005.1265-.3577.2672-.2003.5484.415.7173.8443 1.4205 1.3165 2.0956.1574.225.3149.2672.5868.1829 2.7046-.8439 5.1946-2.0956 7.4986-3.713.186-.1266.2719-.2953.2862-.5203.5581-6.3008-1.016-12.0671-4.5793-17.31293-.1288-.19689-.2862-.33753-.5152-.436-1.9033-.81569-3.8638-1.42049-5.9102-1.80018-.3434-.07032-.5009.04217-.6153.30937-.1199.35333-.3495 1.09108-.7155 1.23768-.3435.14063-.83-.04224-1.2594-.0844-1.846-.16879-3.7064-.15472-5.5381.09848-.3148.04216-.4722-.02816-.6153-.32352-.3267-.6769-.4912-1.01793-.7612-1.14847-.2741-.13261-.6569-.04821-1.4283.12182-1.6028.35161-3.1483.87193-4.6652 1.50482-.3292.14064-.5581.33759-.7442.63288-3.5611 5.39975-4.25752 10.72775-4.5429 16.89815zm23.1608-3.7482c1.5948-1.5348 1.2574-4.5963-.9731-5.3866-1.0876-.3937-2.0464-.1124-2.8335.6752-1.1162 1.111-1.2307 2.9534-.3148 4.2473 1.016 1.4064 2.8907 1.6314 4.1214.4641zm-10.6184-.014c1.6334-1.5719 1.2124-4.6072-1.0303-5.3866-1.0447-.3516-1.9748-.0844-2.7476.661-1.2021 1.1532-1.2879 3.1644-.2146 4.4583 1.0446 1.2657 2.8191 1.3924 3.9925.2673z" fill="#00e0b8" fill-rule="evenodd"/><path d="m4 26.8587c.06002.8254.67614 1.2424 1.308 1.6699l.01046.0072.00777.0053.00523.0036.00248.0017c.06541.0442.13098.0885.19603.1337 2.68587 1.7742 7.89023 3.1662 10.95173 4.2044.4884.1698.7513.0943 1.0331-.3398l1.2003-1.5271c.4267-.5429 1.1032-.8234 1.7912-.764 1.9555.1687 3.3284.1443 5.0887.0018.7553-.0611 1.4858.2951 1.888.9375l1.0491 1.6755c.2066.3021.4132.3586.7701.2455 3.5499-1.1326 9.154-2.9805 12.1779-5.1512.2442-.1698.3569-.3963.3757-.6983.7325-8.4563-1.3336-15.1952-6.0104-22.23572-.169-.26423-.3756-.45299-.6762-.58515-2.498-1.09474-5.0712-1.90644-7.7571-2.41603-.4508-.09437-.6574.05659-.8076.41521-.1573.4742-.4587 1.46434-.9391 1.66109-.4508.18875-1.0894-.05669-1.6529-.11327-2.4229-.22654-.8647-.20765-3.2688.13217-.4132.05659-.6198-.03779-.8076-.43419-.4287-.90848-.6447-1.36617-.999-1.54138-.3597-.17794-.862-.06474-1.8742.16338l-.0006.00012c-2.1036.47189-4.1321 1.17023-6.123 2.01962-.432.18876-.7325.45309-.97669.8494-4.674 7.24705-5.58805 13.39785-5.96261 21.67905z" opacity=".4" stroke="#fff" stroke-width=".3"/></svg>