<svg fill="none" height="35" viewBox="0 0 45 35" width="45" xmlns="http://www.w3.org/2000/svg"><path d="m32.7039 5.58692c2.4083-.10522 3.9486-1.22543 4.8847-2.00835.0909 1.32269-.0657 3.02953-.4699 3.45289.9372-.13139 1.736-.51088 2.0183-.68421.079 1.89636-1.6066 4.63705-3.3535 6.20935.4804 6.682-4.5181 16.0259-14.382 17.4103-9.1757 1.2878-15.86278-3.1775-19.4015-8.2908 4.3063 2.647 10.353 2.0134 10.7917 1.604-5.93692-4.6501-5.59095-17.02934-1.3967-20.2801 2.3029 4.84663 7.3155 6.76806 9.429 7.1312 1.7531-7.28448 9.1706-6.61241 11.8799-4.54428z" opacity=".4" stroke="#fff" stroke-width=".254726"/><path d="m36.1708 8.618c-.9997.44405-2.074.74422-3.2016.87915 1.1509-.69095 2.0348-1.78513 2.451-3.08888-1.077.63983-2.27 1.10447-3.5398 1.35489-1.0169-1.08514-2.4656-1.76316-4.0689-1.76316-3.0787 0-5.5746 2.4998-5.5746 5.583 0 .4377.0493.8637.1444 1.2724-4.6329-.2328-8.7404-2.4556-11.4898-5.83345-.4798.82462-.7547 1.78366-.7547 2.80687 0 1.93698.9842 3.64588 2.4799 4.64708-.9138-.0289-1.7733-.2801-2.5249-.6983-.0004.0233-.0005.0467-.0005.0702 0 2.7051 1.9215 4.9617 4.4716 5.4746-.4678.1275-.9602.1958-1.4686.1958-.3592 0-.7084-.035-1.0488-.1002.7094 2.2181 2.768 3.8324 5.2073 3.8775-1.9078 1.4974-4.3114 2.3899-6.923 2.3899-.44999 0-.89373-.0264-1.3298-.078 2.467 1.5841 5.3971 2.5084 8.5451 2.5084 10.2534 0 15.8603-8.5074 15.8603-15.8854 0-.242-.0054-.4828-.0161-.7222 1.0891-.7872 2.0342-1.77056 2.7815-2.8902z" fill="#00e0b8"/></svg>